<svg xmlns="http://www.w3.org/2000/svg" xmlns:xlink="http://www.w3.org/1999/xlink" width="217" zoomAndPan="magnify" viewBox="0 0 162.75 161.999997" height="216" preserveAspectRatio="xMidYMid meet" version="1.2"><defs><clipPath id="77a695e0e8"><path d="M 27.707031 27.15625 L 134.78125 27.15625 L 134.78125 138.832031 L 27.707031 138.832031 Z M 27.707031 27.15625 "/></clipPath><clipPath id="8ad523c8c4"><path d="M 131.558594 64.378906 C 133.503906 70.082031 134.78125 76.605469 134.78125 82.988281 C 134.78125 89.371094 133.6875 95.515625 131.742188 101.175781 C 131.679688 101.296875 131.679688 101.417969 131.621094 101.539062 C 123.835938 122.800781 103.285156 138.457031 79.9375 138.761719 L 27.707031 138.761719 L 27.707031 27.15625 L 79.902344 27.15625 C 103.40625 27.457031 123.957031 42.875 131.558594 64.378906 Z M 131.558594 64.378906 "/></clipPath><clipPath id="d5c2bef36a"><path d="M 53.195312 55.777344 L 109.359375 55.777344 L 109.359375 110.441406 L 53.195312 110.441406 Z M 53.195312 55.777344 "/></clipPath></defs><g id="806b88f3a8"><g clip-rule="nonzero" clip-path="url(#77a695e0e8)"><g clip-rule="nonzero" clip-path="url(#8ad523c8c4)"><path style=" stroke:none;fill-rule:nonzero;fill:#5271ff;fill-opacity:1;" d="M 134.78125 27.15625 L 134.78125 138.832031 L 27.707031 138.832031 L 27.707031 27.15625 Z M 134.78125 27.15625 "/></g></g><g clip-rule="nonzero" clip-path="url(#d5c2bef36a)"><path style=" stroke:none;fill-rule:nonzero;fill:#ffffff;fill-opacity:1;" d="M 109.277344 86.339844 L 89.242188 86.339844 L 102.785156 99.882812 L 98.3125 104.355469 L 84.511719 90.554688 L 84.511719 110.152344 L 78.1875 110.152344 L 78.1875 90.789062 L 63.816406 105.160156 L 59.050781 100.398438 L 73.109375 86.339844 L 53.222656 86.339844 L 53.222656 79.589844 L 73.558594 79.589844 L 59.871094 65.902344 L 64.34375 61.425781 L 78.1875 75.285156 L 78.1875 55.777344 L 84.511719 55.777344 L 84.511719 74.925781 L 98.683594 60.753906 L 103.445312 65.53125 L 89.386719 79.589844 L 109.277344 79.589844 Z M 109.277344 86.339844 "/></g></g></svg>